<?xml version="1.0" encoding="UTF-8" standalone="no"?>
<!-- Created with Inkscape (http://www.inkscape.org/) -->

<svg
  version="1.1"
  id="svg2"
  width="249"
  height="233"
  viewBox="0 0 249 233"
  sodipodi:docname="screenshot-fontawesome.com-2023.12.14-17_15_47.png"
  xmlns:inkscape="http://www.inkscape.org/namespaces/inkscape"
  xmlns:sodipodi="http://sodipodi.sourceforge.net/DTD/sodipodi-0.dtd"
  xmlns="http://www.w3.org/2000/svg"
  xmlns:svg="http://www.w3.org/2000/svg">
  <defs
    id="defs6" />
  <g
    inkscape:groupmode="layer"
    inkscape:label="Image"
    id="g8">
    <path
      style="fill:#000000;stroke-width:1.38511"
      d="m 28.173336,200.60445 -0.692553,-44.34433 -0.692554,-44.34434 -4.847873,4.21704 -4.847874,4.21704 c -5.213058,4.5347 -11.0228515,3.5746 -14.3638218,0.14464 -3.28120852,-3.3686 -4.1618968,-10.12172 0.512754,-14.09828 L 61.415898,56.909198 119.59038,7.422184 c 1.61261,-1.3717905 3.20859,-1.5315748 4.45012,-1.5614686 1.31986,-0.03178 2.28884,0.151566 4.18218,1.5614686 20.82209,15.505443 42.20353,34.698325 62.00815,51.496721 l 55.40427,46.994235 c 4.09013,3.46929 4.42489,10.89028 1.14963,14.43672 -3.29622,3.56914 -10.54986,3.89353 -14.57514,0 l -10.12131,-7.96599 -0.69255,44.11029 -0.69256,44.11029 c -0.32245,20.53786 -14.9806,26.82891 -33.24256,26.77439 l -64.40746,-0.19229 -64.407465,-0.19229 c -18.561682,-0.0554 -30.206928,-9.39484 -30.472349,-26.38981 z m 54.742134,-27.56056 0.03047,-33.58884 c 0.0097,-10.78186 4.919941,-15.92873 14.90145,-15.92873 h 26.59087 26.59091 c 10.36749,0 14.89259,6.16252 14.90145,15.92873 l 0.0305,33.58884 0.0305,33.58883 h 13.05223 13.05225 c 3.71303,0 8.52387,-3.45876 8.52319,-7.17179 l -0.01,-52.85719 -0.01,-52.857212 L 163.29237,62.235349 125.98489,30.72417 c -0.78758,-0.665215 -2.30517,-0.665215 -3.09275,0 l -37.307473,31.511179 -37.30748,31.511179 -0.0098,52.857212 -0.0098,52.85719 c -6.91e-4,3.71303 4.810159,7.17179 8.52319,7.17179 h 13.052096 13.052249 z m 62.29939,2.42393 v -31.1649 h -20.7766 -20.77661 v 31.1649 31.1649 h 20.77661 20.7766 z"
      id="path301"
      sodipodi:nodetypes="scccsascssscsacccsscsscsscsscccsscccsscccsscccccccccccc" />
  </g>
</svg>