<?xml version="1.0" standalone="no"?>
<!DOCTYPE svg PUBLIC "-//W3C//DTD SVG 20010904//EN"
 "http://www.w3.org/TR/2001/REC-SVG-20010904/DTD/svg10.dtd">
<svg version="1.0" xmlns="http://www.w3.org/2000/svg"
 width="512.000000pt" height="512.000000pt" viewBox="0 0 512.000000 512.000000"
 preserveAspectRatio="xMidYMid meet">
<metadata>
Created by potrace 1.14, written by Peter Selinger 2001-2017
</metadata>
<g transform="translate(0.000000,512.000000) scale(0.100000,-0.100000)"
fill="#000000" stroke="none">
<path d="M3142 5112 c10 -21 36 -75 121 -262 52 -113 114 -245 137 -295 24
-49 55 -117 70 -150 15 -33 43 -94 63 -135 19 -41 44 -95 55 -120 11 -25 52
-112 91 -195 l70 -149 -34 -29 c-68 -55 -88 -140 -52 -216 39 -84 122 -120
222 -96 18 4 34 -26 130 -233 60 -130 131 -284 158 -342 102 -216 130 -277
247 -530 32 -69 77 -165 100 -215 23 -49 82 -175 130 -280 166 -358 159 -345
161 -305 0 19 2 49 3 65 2 17 6 82 10 145 12 198 16 253 21 320 2 36 7 108 10
160 3 52 8 124 10 160 3 36 7 110 10 165 3 55 8 123 9 150 2 28 7 100 11 160
3 61 8 137 10 170 3 33 7 96 10 140 2 44 6 112 9 150 3 39 8 117 11 175 4 58
8 125 10 150 2 25 7 99 10 165 4 66 8 142 10 169 2 28 7 98 11 158 l6 108 -45
19 c-25 11 -74 33 -109 49 -97 46 -211 99 -348 162 -202 93 -282 130 -335 155
-27 13 -108 50 -180 83 -71 33 -166 76 -210 97 -44 20 -138 64 -210 97 -71 33
-173 81 -225 105 -132 63 -182 84 -178 75z m795 -1330 c62 -47 87 -128 62
-203 -13 -38 -66 -99 -86 -99 -8 0 -27 28 -42 63 -16 34 -50 106 -75 160 l-46
98 23 9 c39 17 125 2 164 -28z"/>
<path d="M1925 5091 c-22 -10 -69 -32 -105 -48 -36 -17 -121 -56 -190 -88 -69
-31 -172 -79 -229 -106 -57 -27 -105 -49 -106 -49 -2 0 -56 -25 -121 -56 -66
-31 -162 -75 -214 -99 -52 -24 -135 -62 -185 -85 -49 -23 -112 -52 -140 -65
-27 -13 -97 -45 -155 -72 -58 -27 -158 -74 -223 -104 l-118 -54 6 -115 c4 -63
8 -140 10 -170 2 -30 6 -91 9 -135 3 -44 8 -120 11 -170 3 -49 7 -124 10 -165
3 -41 7 -111 10 -155 3 -44 7 -114 10 -155 3 -41 7 -109 10 -150 3 -41 7 -118
10 -170 3 -52 7 -124 10 -160 3 -36 7 -103 10 -150 6 -115 15 -253 20 -320 2
-30 7 -102 10 -160 4 -58 8 -125 10 -150 2 -25 6 -101 10 -170 4 -69 9 -136
10 -150 2 -14 4 -41 5 -60 l2 -35 26 55 c15 31 47 98 71 150 24 52 61 131 81
175 21 44 50 107 65 140 41 88 88 190 128 275 19 41 54 116 77 165 23 50 66
142 95 205 80 174 119 257 158 340 19 41 92 199 162 350 70 151 145 313 167
360 22 47 66 141 98 210 32 69 77 166 100 215 51 109 80 170 158 340 33 72 80
173 105 225 24 52 56 120 70 150 67 147 90 196 98 213 12 21 4 21 -46 -2z"/>
<path d="M2467 3808 c-151 -14 -310 -72 -445 -162 -120 -79 -253 -231 -315
-359 -32 -65 -79 -187 -72 -187 3 0 1 -8 -4 -18 -22 -41 -32 -238 -19 -357 15
-137 98 -331 192 -454 82 -106 223 -219 346 -278 56 -27 151 -61 187 -68 16
-3 39 -8 53 -11 14 -4 82 -8 152 -9 97 -3 147 1 218 16 93 21 215 67 262 100
14 11 29 19 33 19 4 0 38 23 75 50 147 109 269 274 329 442 47 133 58 206 56
345 -8 359 -211 676 -540 841 -152 76 -329 107 -508 90z m183 -353 c130 -14
262 -84 357 -189 249 -272 197 -713 -107 -910 -116 -75 -184 -97 -315 -102
-108 -4 -185 10 -270 47 -224 99 -374 339 -360 579 10 166 63 288 176 401 107
108 223 162 389 182 26 3 54 1 130 -8z"/>
<path d="M1547 1327 c-3 -7 -59 -144 -126 -305 -66 -160 -121 -296 -121 -301
0 -4 107 -69 238 -144 130 -74 412 -234 626 -356 l389 -222 171 98 c94 54 185
105 201 113 31 17 484 273 545 308 19 11 55 32 80 45 25 14 61 34 80 46 19 11
60 34 90 50 30 16 65 37 77 47 l21 19 -75 180 c-41 99 -82 196 -90 215 -8 19
-31 76 -52 125 l-37 90 -1006 2 c-770 1 -1007 -1 -1011 -10z"/>
</g>
</svg>
