<?xml version="1.0" encoding="UTF-8" standalone="no"?>
<!-- Created with Inkscape (http://www.inkscape.org/) -->

<svg
  width="512mm"
  height="512mm"
  viewBox="0 0 512 512"
  version="1.1"
  id="svg32803"
  inkscape:export-filename="InstagrAng.png"
  inkscape:export-xdpi="96"
  inkscape:export-ydpi="96"
  xmlns:inkscape="http://www.inkscape.org/namespaces/inkscape"
  xmlns:sodipodi="http://sodipodi.sourceforge.net/DTD/sodipodi-0.dtd"
  xmlns:xlink="http://www.w3.org/1999/xlink"
  xmlns="http://www.w3.org/2000/svg"
  xmlns:svg="http://www.w3.org/2000/svg">
  <sodipodi:namedview
    id="namedview32805"
    pagecolor="#ffffff"
    bordercolor="#000000"
    borderopacity="0.25"
    inkscape:showpageshadow="2"
    inkscape:pageopacity="0.0"
    inkscape:pagecheckerboard="0"
    inkscape:deskcolor="#d1d1d1"
    inkscape:document-units="mm"
    showgrid="false" />
  <defs
    id="defs32800">
    <linearGradient
      inkscape:collect="always"
      xlink:href="#linearGradient26497"
      id="linearGradient26499"
      x1="1582.9098"
      y1="859.53711"
      x2="825.10748"
      y2="58.555828"
      gradientUnits="userSpaceOnUse"
      gradientTransform="matrix(0.63934014,0,0,0.63934014,-527.52439,-37.536475)" />
    <linearGradient
      inkscape:collect="always"
      id="linearGradient26497">
      <stop
        style="stop-color:#fdf497;stop-opacity:1;"
        offset="0"
        id="stop26493" />
      <stop
        style="stop-color:#fdf497;stop-opacity:1;"
        offset="0.05"
        id="stop34901" />
      <stop
        style="stop-color:#fd5949;stop-opacity:1;"
        offset="0.44999999"
        id="stop34903" />
      <stop
        style="stop-color:#d6249f;stop-opacity:1;"
        offset="0.60000002"
        id="stop34905" />
      <stop
        style="stop-color:#285aeb;stop-opacity:1;"
        offset="1"
        id="stop26495" />
    </linearGradient>
  </defs>
  <g
    inkscape:label="Livello 1"
    inkscape:groupmode="layer"
    id="layer1">
    <g
      id="g33018">
      <g
        id="g33048"
        transform="translate(13.75323,0.049774)">
        <path
          id="path26491"
          style="font-variation-settings:'wght' 700;fill:url(#linearGradient26499);fill-opacity:1;stroke:none;stroke-width:19.1802;stroke-linecap:round;stroke-linejoin:round;stroke-miterlimit:0;stroke-opacity:1;paint-order:stroke fill markers"
          d="M 299.99041,-0.09938337 361.23215,131.70342 a 18.229947,18.229947 0 0 0 -0.006,0.002 l 0.0114,0.0248 a 18.229947,18.229947 0 0 1 0.0563,-0.0258 18.229947,18.229947 0 0 1 7.77214,-1.76424 18.229947,18.229947 0 0 1 18.22989,18.2299 18.229947,18.229947 0 0 1 -10.70115,16.5964 l 90.52264,194.8217 17.37568,-274.352244 z M 361.23783,131.7303 a 18.229947,18.229947 0 0 0 -10.56783,16.49821 18.229947,18.229947 0 0 0 18.2299,18.2299 18.229947,18.229947 0 0 0 7.6631,-1.72961 z m 15.32517,32.9985 0.0103,0.0227 a 18.229947,18.229947 0 0 0 0.3483,-0.18604 18.229947,18.229947 0 0 1 -0.35863,0.1633 z M 184.50444,0.14091204 -6.4309896e-5,85.476272 17.376136,359.828 Z M 242.02547,114.45693 c -60.52397,0 -109.57625,50.33385 -109.57625,111.88878 0,61.55493 49.05228,111.89084 109.57625,111.89084 60.52397,0 109.57419,-50.33591 109.57419,-111.89084 0,-61.55493 -49.05022,-111.88878 -109.57419,-111.88878 z m 0,19.92798 c 49.50406,0 89.64621,40.93095 89.64621,91.9608 0,51.02985 -40.14215,91.96286 -89.64621,91.96286 -49.50405,0 -89.64827,-40.93301 -89.64827,-91.96286 0,-51.02985 40.14422,-91.9608 89.64827,-91.9608 z m -100.62073,243.75153 -25.70541,62.18691 125.71068,71.67676 126.80724,-71.67676 -25.70489,-62.18691 z" />
      </g>
    </g>
  </g>
</svg>